<svg xmlns="http://www.w3.org/2000/svg" xmlns:svg="http://www.w3.org/2000/svg" xmlns:xlink="http://www.w3.org/1999/xlink" id="Ebene_1" width="100" height="100" x="0" y="0" enable-background="new 0 0 100 100" version="1.1" viewBox="0 0 100 100" xml:space="preserve"><path fill="#FFF" d="M44.834,25.833c-12,5.5-19.5,16.5-19,26c0.5,8,6.5,18,16.5,24c-12.5,0.5-19.5-15-19.5-22	c-1.5,8.5,1.5,24.5,18,30.5c5,1.5,15,2,19.5-1.5c8-5.5,5-13-1.5-18.5c-7.5-6-14-10-17.5-18	C38.834,40.333,37.834,33.333,44.834,25.833 M51.334,51.833c-10.5-10.5-8.5-18-2-27c3.5-4.5,6.5-9,6-14.5c16,17,1,22.5,9,31.5	c1-5,4.5-10,9-13.5c-1.5,13.5,3,14,7,22c6,13-2.5,27.5-15,33.5c5.5-5.5,6-12.5,0-19.5C61.834,60.833,56.334,57.333,51.334,51.833"/></svg>