<svg xmlns="http://www.w3.org/2000/svg" xmlns:xlink="http://www.w3.org/1999/xlink" id="Layer_1" width="50" height="50" x="0" y="0" enable-background="new 0 0 50 50" version="1.1" viewBox="0 0 50 50" xml:space="preserve"><style type="text/css">.st0{fill:#51b849}</style><path d="M29.9,28.7c0,0.7-0.6,1.2-1.2,1.2h-7.3c-0.7,0-1.2-0.6-1.2-1.2c0-0.7,0.6-1.2,1.2-1.2h7.3	C29.3,27.5,29.9,28,29.9,28.7z M21.3,22.5h3.6c0.7,0,1.2-0.6,1.2-1.2c0-0.7-0.6-1.2-1.2-1.2h-3.6c-0.7,0-1.2,0.6-1.2,1.2	S20.6,22.5,21.3,22.5z M45,25c0,11-9,20-20,20C14,45,5,36,5,25C5,14,14,5,25,5C36,5,45,14,45,25z M35.2,23.5l-0.1-0.3L35,22.9	l-0.3-0.2c-0.4-0.3-2.3,0-2.8-0.4c-0.4-0.3-0.4-0.9-0.5-1.8c-0.2-1.6-0.3-1.7-0.6-2.2c-0.9-1.9-3.3-3.4-5-3.6h-4.5	c-3.6,0-6.5,2.9-6.5,6.5v7.6c0,3.6,2.9,6.5,6.5,6.5h7.5c3.6,0,6.5-2.9,6.5-6.5L35.2,23.5z" class="st0"/></svg>