<svg xmlns="http://www.w3.org/2000/svg" xmlns:svg="http://www.w3.org/2000/svg" id="svg4288" width="139.966" height="140.002" version="1.1"><defs id="defs4290"><clipPath id="clipPath300"><path id="path302" d="m 77,1524.542 111.973,0 0,118.83 -111.973,0 0,-118.83 z"/></clipPath></defs><metadata id="metadata4293"/><g id="layer1" transform="translate(-305.01693,-462.36095)"><g id="g296" transform="matrix(1.25,0,0,-1.25,208.76681,2508.0409)"><g id="g298" clip-path="url(#clipPath300)"><g id="g304" transform="translate(102.3871,1550.1545)"><path id="path306" fill="#3db54a" fill-opacity="1" fill-rule="nonzero" stroke="none" d="m 0,0 31.28,-19.947 c 0,0 28.56,19.494 30.146,19.494 16.094,-1.133 25.16,-25.16 25.16,-25.16 l -111.973,0 c 0,0 7.413,23.806 25.093,25.619 L 0,0 z"/></g><g id="g308" transform="translate(119.8971,1567.7216)"><path id="path310" fill="#3db54a" fill-opacity="1" fill-rule="nonzero" stroke="none" d="m 0,0 c 0,0 6.29,-13.94 -14.96,-18.87 -0.425,-0.425 -5.44,0.85 -5.44,0.85 0,0 5.27,3.57 2.89,17 -2.38,13.43 -14.62,49.81 5.78,63.24 20.4,13.43 40.29,2.55 43.52,0.51 3.23,-2.04 15.47,-9.18 12.58,-30.6 -2.89,-21.42 -6.29,-38.59 3.23,-50.83 -0.17,0.51 -19.04,-4.42 -22.1,14.96 0,12.24 4.08,17.51 4.42,22.95 0.34,5.44 -3.91,11.56 -3.91,11.56 0,0 1.7,-7.65 1.02,-8.67 -0.68,-1.02 1.87,1.7 -6.8,7.82 -8.67,6.12 -16.15,9.69 -20.74,21.42 -0.17,-0.17 -10.71,-4.76 -11.22,-21.59 -0.34,0 -3.4,1.02 -3.57,-2.38 -0.17,-3.4 1.87,-9.52 4.08,-10.88 2.21,-1.36 2.89,-2.38 4.25,-5.78 C -5.61,7.31 -1.53,0.68 0,0"/></g><g id="g312" transform="translate(118.5112,1567.5078)"><path id="path314" fill="none" stroke="#3db54a" stroke-dasharray="none" stroke-linecap="round" stroke-linejoin="round" stroke-miterlimit="10" stroke-opacity="1" stroke-width="2.04" d="M 0,0 C 0,0 15.726,-15.295 28.006,0.431"/></g></g></g></g></svg>