<svg xmlns="http://www.w3.org/2000/svg" xmlns:svg="http://www.w3.org/2000/svg" id="svg4372" width="143.239" height="148.062" version="1.1"><defs id="defs4374"><clipPath id="clipPath320"><path id="path322" d="m 518,1525.371 116.752,0 0,120.277 -116.752,0 0,-120.277 z"/></clipPath></defs><metadata id="metadata4377"/><g id="layer1" transform="translate(-303.38037,-458.33134)"><g id="g316" transform="matrix(1.25,0,0,-1.25,-346.81988,2513.1076)"><g id="g318" clip-path="url(#clipPath320)"><g id="g324" transform="translate(520.1826,1525.3716)"><path id="path326" fill="#3db54a" fill-opacity="1" fill-rule="nonzero" stroke="none" d="m 0,0 c 0,0 -2.183,19.368 36.553,30.006 -0.273,0.273 21.55,-16.095 21.55,-16.095 l 19.368,15.823 c 0,0 35.462,-8.456 37.098,-28.916 C 114.297,1.091 0,0 0,0"/></g><g id="g328" transform="translate(569.1263,1642.4689)"><path id="path330" fill="#3db54a" fill-opacity="1" fill-rule="nonzero" stroke="none" d="m 0,0 c 0,0 3.814,3.179 6.147,-0.212 0,0 6.145,3.391 8.054,-1.06 0.423,0.212 5.934,1.696 6.994,-2.331 -0.212,0 5.934,1.059 6.994,-4.875 -0.212,0 7.207,0.212 6.571,-6.783 0,-0.211 4.662,-1.483 2.543,-6.781 0,-0.424 4.662,-2.968 1.059,-6.995 0,-0.212 4.24,-3.815 0,-6.994 0.636,-0.636 4.027,-5.086 0.424,-7.206 -0.635,-0.212 -0.848,-2.967 -4.451,-1.272 0.213,-1.059 -2.119,-2.755 -3.179,-4.45 -1.059,-1.696 -2.967,-1.696 -1.484,2.331 0,2.119 1.695,13.988 0,16.956 -1.695,2.967 -3.391,2.967 -5.298,0.847 -1.908,-2.119 -4.028,-3.392 -6.147,-2.967 0.425,-0.212 1.061,-1.696 -3.391,-1.908 0.636,-0.635 -3.603,-0.424 -4.663,-0.635 0,0 -1.483,-1.484 -4.662,-1.06 0,0.212 -3.179,-0.636 -5.087,0.848 0.635,-0.424 -1.696,-1.272 -3.603,0.212 0.212,0.424 -4.875,-1.272 -6.146,2.967 0,-1.272 -2.544,-0.848 -2.967,1.059 -0.637,-0.423 -3.392,-0.635 -3.392,-0.635 0,0 -0.211,-5.51 0.424,-8.266 0.636,-2.755 1.695,-8.478 2.331,-9.114 0.637,-0.635 0.425,-3.603 -1.695,-2.331 -2.12,1.271 -2.544,3.602 -2.331,4.662 -0.637,0.213 0,1.06 -1.484,1.908 0.212,-0.212 -2.755,-1.696 -3.816,0 0.637,-0.424 -3.814,-0.424 -2.331,4.027 -0.423,0.848 -2.331,3.603 -1.059,6.358 -0.636,-0.211 -0.424,4.663 0.423,5.935 0,0 -2.119,3.603 1.696,5.934 0,0 -2.331,4.239 2.755,5.511 0.425,0.212 -0.635,7.63 6.147,6.994 -0.212,-0.212 1.272,5.299 6.146,4.663 -0.636,0 0.848,4.027 5.299,3.603 C -3.603,-0.848 -2.967,1.695 0,0"/></g><g id="g332" transform="translate(547.7202,1598.1721)"><path id="path334" fill="none" stroke="#3db54a" stroke-dasharray="none" stroke-linecap="round" stroke-linejoin="round" stroke-miterlimit="10" stroke-opacity="1" stroke-width="1.98" d="m 0,0 c 0,0 -0.636,-13.14 6.57,-12.717 0,-0.212 6.358,-22.466 22.466,-22.466 16.108,0 20.241,20.029 22.466,22.254 0,0 3.816,1.06 4.664,11.657 l -0.213,0.636"/></g><g id="g336" transform="translate(557.1155,1554.5128)"><path id="path338" fill="none" stroke="#3db54a" stroke-dasharray="none" stroke-linecap="round" stroke-linejoin="round" stroke-miterlimit="10" stroke-opacity="1" stroke-width="1.98" d="M 0,0 C 0,0 6.865,1.057 6.229,14.41"/></g><g id="g340" transform="translate(598.1476,1554.0243)"><path id="path342" fill="none" stroke="#3db54a" stroke-dasharray="none" stroke-linecap="round" stroke-linejoin="round" stroke-miterlimit="10" stroke-opacity="1" stroke-width="1.98" d="M 0,0 C 0,0 -6.293,2.433 -6.716,15.997"/></g></g></g></g></svg>