<svg xmlns="http://www.w3.org/2000/svg" xmlns:svg="http://www.w3.org/2000/svg" id="svg4154" width="97.633" height="81.07" version="1.1"><defs id="defs4156"><clipPath id="clipPath1056"><path id="path1058" d="m 751.893,2539.513 78.107,0 0,67.592 -78.107,0 0,-67.592 z"/></clipPath></defs><metadata id="metadata4159"/><g id="layer1" transform="translate(-419.75486,-471.8271)"><g id="g1052" transform="matrix(1.25,0,0,-1.25,-520.11201,3730.7076)"><g id="g1054" clip-path="url(#clipPath1056)"><g id="g1060" transform="translate(796.3441,2572.0825)"><path id="path1062" fill="#61ac46" fill-opacity="1" fill-rule="nonzero" stroke="none" d="m 0,0 c 0,0 5.971,-6.695 11.761,-7.599 5.79,-0.905 19.905,-2.351 21.895,-13.751 0,0.543 -8.324,11.217 -19,9.227 -0.182,0.18 1.81,-4.524 12.667,-5.248 -0.182,0 -4.161,-4.342 -16.105,3.982 -0.271,-0.272 0.362,-13.572 13.209,-16.285 -0.181,0 -10.312,-2.895 -17.914,15.923 -2.352,4.523 -3.981,7.781 -7.78,9.59 C -5.067,-2.351 0,0 0,0"/></g><g id="g1064" transform="translate(791.2775,2572.2644)"><path id="path1066" fill="#4e5867" fill-opacity="1" fill-rule="nonzero" stroke="none" d="M 0,0 C -1.255,1.047 -13.752,12.127 -24.074,21.288 -33.566,12.941 -37.636,4.523 -37.636,4.523 c 1.583,8.34 6.046,14.408 11.28,18.791 -6.3,5.593 -11.316,10.052 -11.606,10.309 0.071,-0.034 0.28,-0.012 0.868,0.575 2.355,-1.025 7.11,-4.817 12.483,-9.493 10.016,7.481 21.907,9.302 22.077,9.131 -8.152,-2.814 -14.699,-6.885 -19.835,-11.1 C -12.117,13.647 -0.556,2.364 0.905,0.905 3.257,-1.448 2.171,-1.81 0,0 m -2.223,34.379 -37.161,0.461 0,-30.875 45.912,-9.575 -8.751,39.989 z"/></g></g></g></g></svg>