<svg xmlns="http://www.w3.org/2000/svg" xmlns:svg="http://www.w3.org/2000/svg" xmlns:xlink="http://www.w3.org/1999/xlink" id="Ebene_1" width="100" height="100" x="0" y="0" enable-background="new 0 0 100 100" version="1.1" viewBox="15 15 70 70" xml:space="preserve"><path id="path2999" fill="#F06E25" d="M50,22.223c-18.445,0-33.398,9.943-33.398,22.207	c0,7.016,4.908,13.266,12.552,17.334c-1.088,3.607-3.259,7.602-7.453,11.135c0,0,9.792-0.648,16.708-7.664	c0.397,0.098,0.81,0.17,1.212,0.262c-0.378-1.127-0.601-2.301-0.601-3.52c0-8.275,9.209-14.754,20.971-14.754	c8.448,0,15.557,3.355,18.903,8.305c2.849-3.268,4.505-7.051,4.505-11.1C83.398,32.166,68.443,22.223,50,22.223z M78.521,61.979	c0-6.805-8.294-12.322-18.532-12.322c-10.232,0-18.531,5.518-18.531,12.322c0,6.807,8.299,12.322,18.531,12.322	c2.266,0,4.424-0.281,6.432-0.777c3.836,3.895,9.27,4.254,9.27,4.254c-2.327-1.961-3.529-4.178-4.135-6.18	C75.794,69.342,78.521,65.873,78.521,61.979z"/></svg>