<svg xmlns="http://www.w3.org/2000/svg" xmlns:svg="http://www.w3.org/2000/svg" id="svg4790" width="26.136" height="26.116" version="1.1"><defs id="defs4792"><clipPath id="clipPath1574"><path id="path1576" d="m 893.038,103.459 21.065,0 0,21.048 -21.065,0 0,-21.048 z"/></clipPath></defs><metadata id="metadata4795"/><g id="layer1" transform="translate(-361.93194,-519.304)"><g id="g1570" transform="matrix(1.25,0,0,-1.25,-754.36556,674.93775)"><g id="g1572" clip-path="url(#clipPath1574)"><g id="g1578" transform="translate(895.6515,116.6693)"><path id="path1580" fill="#fff" fill-opacity="1" fill-rule="nonzero" stroke="none" d="M 0,0 C 0,2.88 2.343,5.224 5.224,5.224 8.105,5.224 10.448,2.88 10.448,0 10.448,-2.881 8.105,-5.224 5.224,-5.224 2.343,-5.224 0,-2.881 0,0 m 17.839,-10.719 -6.208,6.208 c 0.9,1.275 1.431,2.831 1.431,4.511 0,4.329 -3.509,7.838 -7.838,7.838 -4.328,0 -7.838,-3.509 -7.838,-7.838 0,-4.328 3.51,-7.837 7.838,-7.837 1.689,0 3.251,0.535 4.53,1.443 l 6.205,-6.205 c 0.569,-0.569 1.458,-0.612 1.975,-0.095 0.517,0.517 0.474,1.406 -0.095,1.975"/></g></g></g></g></svg>