<svg xmlns="http://www.w3.org/2000/svg" xmlns:xlink="http://www.w3.org/1999/xlink" id="svg5747" width="24.693" height="32.914" version="1.1"><defs id="defs5749"><clipPath id="SVGID_132_"><use id="use5647" width="744.094" height="1052.362" x="0" y="0" xlink:href="#SVGID_131_"/></clipPath></defs><metadata id="metadata5752"/><g id="layer1" transform="translate(-433.36778,-438.76255)"><g id="g5641" fill="#FFF" transform="translate(-411.6512,379.76211)"><defs id="defs5643"><rect id="SVGID_131_" width="24.693" height="32.915" x="845.02" y="58.999"/></defs><clipPath id="clipPath5742"><use id="use5744" width="744.094" height="1052.362" x="0" y="0" xlink:href="#SVGID_131_"/></clipPath><path id="path5649" fill="#FFF" d="m866.46,73.37v-5.401c0-4.952-4.016-8.966-8.967-8.966-0.062,0-0.105-0.004-0.166-0.002-0.051-0.001-0.113,0.003-0.164,0.003-4.952,0-8.966,4.014-8.966,8.965v5.401h-3.174v18.544h24.694v-18.544h-3.257zm-6.286,15.144h-5.602l1.372-5.995c-0.818-0.488-1.372-1.381-1.372-2.405,0-1.546,1.255-2.8,2.801-2.8,1.547,0,2.801,1.254,2.801,2.8,0,1.028-0.556,1.924-1.382,2.411l1.382,5.989zm1.8-15.144h-9.291v-5.401c0-2.469,2.01-4.478,4.48-4.478,0.07,0,0.219-0.004,0.219-0.004s0.075,0.003,0.111,0.003c2.471,0,4.48,2.009,4.48,4.479v5.401z" class="st34" clip-path="url(#SVGID_132_)"/></g></g></svg>