<svg xmlns="http://www.w3.org/2000/svg" xmlns:svg="http://www.w3.org/2000/svg" xmlns:xlink="http://www.w3.org/1999/xlink" id="svg5815" width="47.128" height="32.913" version="1.1"><defs id="defs5817"><clipPath id="SVGID_140_"><use id="use5705" width="744.094" height="1052.362" x="0" y="0" xlink:href="#SVGID_139_"/></clipPath></defs><metadata id="metadata5820"/><g id="layer1" transform="translate(-165.00841,-215.90869)"><g id="g5699" fill="#fff" transform="translate(-662.72157,83.946686)"><defs id="defs5701"><rect id="SVGID_139_" width="47.132" height="32.915" x="827.73" y="131.96"/></defs><clipPath id="clipPath5810"><use id="use5812" width="744.094" height="1052.362" x="0" y="0" xlink:href="#SVGID_139_"/></clipPath><path id="path5707" fill="#fff" d="m 869.23,146.74 c 0.013,-0.201 0.027,-0.408 0.027,-0.624 0,-7.816 -6.335,-14.151 -14.15,-14.154 -5.499,0.003 -10.251,3.144 -12.593,7.724 -1.075,-0.738 -2.378,-1.176 -3.78,-1.176 -3.702,0.001 -6.704,3.001 -6.704,6.704 0,0.606 0.081,1.193 0.233,1.754 -2.721,1.713 -4.537,4.739 -4.537,8.195 0,5.194 4.089,9.427 9.222,9.672 l 0,0.016 0.432,0 c 0,-0.001 0,0 0.037,0.002 0.037,-0.002 0.037,-0.003 0.037,-0.002 l 27.426,0 c 0.139,0.008 0.31,0.026 0.5,0.026 5.232,0 9.476,-4.244 9.478,-9.477 -0.003,-3.863 -2.313,-7.185 -5.628,-8.66 m -3.85,14.91 c -0.034,0 -0.084,-0.005 -0.146,-0.01 l -0.201,-0.013 -0.067,-0.003 -27.65,0 0,-0.006 c -3.506,-0.052 -6.362,-2.953 -6.36,-6.454 0,-2.299 1.182,-4.367 3.172,-5.553 l 1.973,-1.172 -0.685,-2.189 c -0.104,-0.332 -0.155,-0.682 -0.155,-1.035 0.003,-1.916 1.558,-3.472 3.475,-3.475 0.773,0 1.5,0.249 2.119,0.73 l 2.848,2.208 1.554,-3.253 c 1.806,-3.783 5.678,-6.233 9.853,-6.231 6.021,0.011 10.912,4.899 10.923,10.923 0,0.13 -0.011,0.268 -0.02,0.415 l -0.017,0.243 -0.123,2.06 1.906,0.793 c 2.34,0.975 3.849,3.237 3.851,5.773 -0.008,3.442 -2.807,6.241 -6.25,6.249" class="st18" clip-path="url(#SVGID_140_)"/></g></g></svg>