<svg xmlns="http://www.w3.org/2000/svg" xmlns:svg="http://www.w3.org/2000/svg" id="svg4730" width="24.034" height="27.991" version="1.1"><defs id="defs4732"><clipPath id="clipPath1562"><path id="path1564" d="m 894.875,187.538 19.227,0 0,22.393 -19.227,0 0,-22.393 z"/></clipPath></defs><metadata id="metadata4735"/><g id="layer1" transform="translate(-362.98312,-518.36656)"><g id="g1558" transform="matrix(1.25,0,0,-1.25,-755.61063,780.78031)"><g id="g1560" clip-path="url(#clipPath1562)"><g id="g1566" transform="translate(914.095,209.9297)"><path id="path1568" fill="#fff" fill-opacity="1" fill-rule="nonzero" stroke="none" d="m 0,0 -2.234,-0.534 -11.158,-2.667 -0.044,0 0,-13.092 c -0.535,0.211 -1.135,0.334 -1.772,0.334 -2.216,0 -4.012,-1.44 -4.012,-3.216 0,-1.777 1.796,-3.217 4.012,-3.217 2.193,0 3.973,1.412 4.008,3.165 l 0.004,0 0,12.632 8.962,2.14 0,-7.853 c -0.535,0.213 -1.134,0.335 -1.771,0.335 -2.216,0 -4.012,-1.441 -4.012,-3.217 0,-1.776 1.796,-3.216 4.012,-3.216 2.193,0 3.973,1.413 4.008,3.164 l 0.004,0 0,13.103 0,0 0,2.141 L 0,0 z"/></g></g></g></g></svg>