<svg xmlns="http://www.w3.org/2000/svg" xmlns:svg="http://www.w3.org/2000/svg" id="svg2" width="40" height="35.818" version="1.1"><metadata id="metadata18"/><g id="g4" transform="translate(-269.23714,-226.72471)"><title id="title6">background</title><rect id="canvas_background" width="582" height="402" x="-1" y="-1" fill="none"/></g><g id="g9" transform="matrix(0.09172187,0,0,0.08213188,-2.9304219,-2.6241137)"><title id="title11">Layer 1</title><path id="svg_1" fill="#fff" fill-rule="evenodd" d="m 31.948999,431.711 c 0,20.078 16.264002,36.33999 36.340002,36.33999 l 363.420989,0 c 20.078,0 36.34,-16.26199 36.34,-36.33999 l 0,-272.56599 c 0,-20.07799 -16.262,-36.342 -36.34,-36.342 l -72.685,0 0,-54.513008 c 0,-20.077 -16.263,-36.34 -36.34201,-36.34 l -145.36598,0 c -20.07899,0 -36.34199,16.264 -36.34199,36.34 l 0,54.512998 -72.685009,0 c -20.077,0 -36.34,16.264 -36.34,36.34201 l 0,272.56599 -0.001,0 z M 313.599,122.802 l -127.198,0 0,-25.435003 c 0,-11.083 8.905,-19.990997 19.991,-19.990997 l 87.21499,0 c 11.08499,0 19.991,8.909004 19.991,19.990997 l 0,25.435003 0.001,0 z M 160.963,250 l 43.61,0 0,-43.608 c 0,-11.08299 8.90201,-19.991 19.989,-19.991 l 50.87699,0 c 11.08002,0 19.987,8.909 19.987,19.991 l 0,43.608 43.607,0 c 11.08502,0 19.992,8.90701 19.992,19.991 l 0,50.875 c 0,11.08099 -8.90698,19.98599 -19.992,19.98599 l -43.607,0 0,43.61301 c 0,11.08001 -8.90698,19.98599 -19.987,19.98599 l -50.87699,0 c -11.086,0 -19.989,-8.90598 -19.989,-19.98599 l 0,-43.61301 -43.61,0 c -11.086,0 -19.989,-8.905 -19.989,-19.98599 l 0,-50.875 C 140.97501,258.90701 149.877,250 160.963,250 Z" clip-rule="evenodd"/></g></svg>