<svg xmlns="http://www.w3.org/2000/svg" xmlns:xlink="http://www.w3.org/1999/xlink" version="1.0" viewBox="-46.5 0 90 117"><defs><style>path{stroke-width:.3;stroke:#000;fill:none}g.active path.data{stroke:#ba7ad1}g.active path.hardware{stroke:#4d6fbe}g.active path.privacy{stroke:#b4b2aa}g.active path.intellectualproperty{stroke:#61ac46}g.active path.publishing{stroke:#0d979f}g.active path.education{stroke:#fbb916}g.active path.web{stroke:#e23026}g.active path.science{stroke:#785033}g.active path.goverment{stroke:#f06e25}g.active circle.data{fill:#ba7ad1}g.active circle.hardware{fill:#4d6fbe}g.active circle.privacy{fill:#b4b2aa}g.active circle.intellectualproperty{fill:#61ac46}g.active circle.publishing{fill:#0d979f}g.active circle.education{fill:#fbb916}g.active circle.web{fill:#e23026}g.active circle.science{fill:#785033}g.active circle.goverment{fill:#f06e25}g.inactive path{stroke:#c8c8c8}</style></defs><g class="inactive"><path d="M-42,3.5 H18 V57.5 H43.5" class="arthur intellectualproperty"/><path d="M-42,4.5 H15 V82.5 H43.5" class="arthur publishing"/><path d="M-42,5.5 H24 V42.5 H43.5" class="arthur education"/><path d="M-33,12 H-24 V43.5 H43.5" class="daniel education"/><path d="M-33,13 H6 V13.5 H43.5" class="daniel web"/><path d="M-33,14 H3 V95.5 H43.5" class="daniel data"/><path d="M-33,15 H-12 V71 H43.5" class="daniel science"/><path d="M-42,22.5 H0 V6.5 H43.5" class="moxie privacy"/><path d="M-33,30 H-6 V83.5 H43.5" class="esra publishing"/><path d="M-33,31 H0 V32 H43.5" class="esra goverment"/><path d="M-33,32 H0 V96.5 H43.5" class="esra data"/><path d="M-33,33 H-3 V16.5 H43.5" class="esra web"/><path d="M-42,40.5 H-9 V108 H24 V110.5 H43.5" class="marcin hardware"/><path d="M-33,48 H-15 V97.5 H43.5" class="rufus data"/><path d="M-33,49 H-24 V72 H43.5" class="rufus science"/><path d="M-33,50 H-27 V36.5 H6 V33 H43.5" class="rufus goverment"/><path d="M-33,51 H-21 V44.5 H43.5" class="rufus education"/><path d="M-42,58 H-18 V26.25 H6 V15.5 H43.5" class="dan web"/><path d="M-42,59 H-3 V45.5 H43.5" class="dan education"/><path d="M-33,66.5 H-18 V63 H24 V58.5 H43.5" class="jonas intellectualproperty"/><path d="M-33,67.5 H9 V17.5 H43.5" class="jonas web"/><path d="M-33,68.5 H-21 V98.5 H43.5" class="jonas data"/><path d="M-42,76 H-3 V69.25 H27 V59.5 H43.5" class="catharina intellectualproperty"/><path d="M-42,77 H-27 V67.5 H9 V18.5 H43.5" class="catharina web"/><path d="M-33,84.5 H-12 V79.75 H6 V46.5 H43.5" class="gavin education"/><path d="M-33,85.5 H-6 V84.5 H43.5" class="gavin publishing"/><path d="M-33,86.5 H-18 V67.5 H9 V19.5 H43.5" class="gavin web"/><path d="M-42,93.5 H6 V46.5 H43.5" class="david education"/><path d="M-42,94.5 H-3 V85.5 H43.5" class="david publishing"/><path d="M-42,95.5 H-18 V67.5 H9 V20.5 H43.5" class="david web"/><path d="M-33,102.5 H6 V46.5 H43.5" class="kathi education"/><path d="M-33,103.5 H9 V86.5 H43.5" class="kathi publishing"/><path d="M-33,104.5 H12 V21.5 H43.5" class="kathi web"/><path d="M-42,111.5 H15 V99.5 H43.5" class="jaisen data"/><path d="M-42,112.5 H18 V87.5 H43.5" class="kathi publishing"/><path d="M-42,113.5 H21 V22.5 H43.5" class="kathi web"/></g><g class="active"><path d="M-42,3.5 H18 V57.5 H43.5" class="arthur intellectualproperty"/><path d="M-42,4.5 H15 V82.5 H43.5" class="arthur publishing"/><path d="M-42,5.5 H24 V42.5 H43.5" class="arthur education"/><circle cx="-42" cy="3.5" r=".45" class="arthur intellectualproperty"/><circle cx="-42" cy="4.5" r=".45" class="arthur publishing"/><circle cx="-42" cy="5.5" r=".45" class="arthur education"/><path d="M-33,12 H-24 V43.5 H43.5" class="daniel education"/><path d="M-33,13 H6 V13.5 H43.5" class="daniel web"/><path d="M-33,14 H3 V95.5 H43.5" class="daniel data"/><path d="M-33,15 H-12 V71 H43.5" class="daniel science"/><circle cx="-33" cy="12" r=".45" class="daniel education"/><circle cx="-33" cy="13" r=".45" class="daniel web"/><circle cx="-33" cy="14" r=".45" class="daniel data"/><circle cx="-33" cy="15" r=".45" class="daniel science"/><path d="M-42,22.5 H0 V6.5 H43.5" class="moxie privacy"/><circle cx="-42" cy="22.5" r=".45" class="moxie privacy"/><path d="M-33,30 H-6 V83.5 H43.5" class="esra publishing"/><path d="M-33,31 H0 V32 H43.5" class="esra goverment"/><path d="M-33,32 H0 V96.5 H43.5" class="esra data"/><path d="M-33,33 H-3 V16.5 H43.5" class="esra web"/><circle cx="-33" cy="30" r=".45" class="daniel publishing"/><circle cx="-33" cy="31" r=".45" class="daniel goverment"/><circle cx="-33" cy="32" r=".45" class="daniel data"/><circle cx="-33" cy="33" r=".45" class="daniel web"/><path d="M-42,40.5 H-9 V108 H24 V110.5 H43.5" class="marcin hardware"/><circle cx="-42" cy="40.5" r=".45" class="marcin hardware"/><path d="M-33,48 H-15 V97.5 H43.5" class="rufus data"/><path d="M-33,49 H-24 V72 H43.5" class="rufus science"/><path d="M-33,50 H-27 V36.5 H6 V33 H43.5" class="rufus goverment"/><path d="M-33,51 H-21 V44.5 H43.5" class="rufus education"/><circle cx="-33" cy="48" r=".45" class="rufus data"/><circle cx="-33" cy="49" r=".45" class="rufus science"/><circle cx="-33" cy="50" r=".45" class="rufus goverment"/><circle cx="-33" cy="51" r=".45" class="rufus education"/><path d="M-42,58 H-18 V26.25 H6 V15.5 H43.5" class="dan web"/><path d="M-42,59 H-3 V45.5 H43.5" class="dan education"/><circle cx="-42" cy="58" r=".45" class="dan web"/><circle cx="-42" cy="59" r=".45" class="dan education"/><path d="M-33,66.5 H-18 V63 H24 V58.5 H43.5" class="jonas intellectualproperty"/><path d="M-33,67.5 H9 V17.5 H43.5" class="jonas web"/><path d="M-33,68.5 H-21 V98.5 H43.5" class="jonas data"/><circle cx="-33" cy="66.5" r=".45" class="jonas intellectualproperty"/><circle cx="-33" cy="67.5" r=".45" class="jonas web"/><circle cx="-33" cy="68.5" r=".45" class="jonas data"/><path d="M-42,76 H-3 V69.25 H27 V59.5 H43.5" class="catharina intellectualproperty"/><path d="M-42,77 H-27 V67.5 H9 V18.5 H43.5" class="catharina web"/><circle cx="-42" cy="76" r=".45" class="catharina intellectualproperty"/><circle cx="-42" cy="77" r=".45" class="catharina web"/><path d="M-33,84.5 H-12 V79.75 H6 V46.5 H43.5" class="gavin education"/><path d="M-33,85.5 H-6 V84.5 H43.5" class="gavin publishing"/><path d="M-33,86.5 H-18 V67.5 H9 V19.5 H43.5" class="gavin web"/><circle cx="-33" cy="84.5" r=".45" class="gavin education"/><circle cx="-33" cy="85.5" r=".45" class="gavin publishing"/><circle cx="-33" cy="86.5" r=".45" class="gavin web"/><path d="M-42,93.5 H6 V46.5 H43.5" class="david education"/><path d="M-42,94.5 H-3 V85.5 H43.5" class="david publishing"/><path d="M-42,95.5 H-18 V67.5 H9 V20.5 H43.5" class="david web"/><circle cx="-42" cy="93.5" r=".45" class="david education"/><circle cx="-42" cy="94.5" r=".45" class="david publishing"/><circle cx="-42" cy="95.5" r=".45" class="david web"/><path d="M-33,102.5 H6 V46.5 H43.5" class="kathi education"/><path d="M-33,103.5 H9 V86.5 H43.5" class="kathi publishing"/><path d="M-33,104.5 H12 V21.5 H43.5" class="kathi web"/><circle cx="-33" cy="102.5" r=".45" class="kathi education"/><circle cx="-33" cy="103.5" r=".45" class="kathi publishing"/><circle cx="-33" cy="104.5" r=".45" class="kathi web"/><path d="M-42,111.5 H15 V99.5 H43.5" class="jaisen data"/><path d="M-42,112.5 H18 V87.5 H43.5" class="jaisen publishing"/><path d="M-42,113.5 H21 V22.5 H43.5" class="jaisen web"/><circle cx="-42" cy="111.5" r=".45" class="jaisen data"/><circle cx="-42" cy="112.5" r=".45" class="jaisen publishing"/><circle cx="-42" cy="113.5" r=".45" class="jaisen web"/></g></svg>