<svg xmlns="http://www.w3.org/2000/svg" xmlns:xlink="http://www.w3.org/1999/xlink" id="Layer_1" width="208.11" height="252.25" x="0" y="0" version="1.0" viewBox="0 0 208.11 252.251" xml:space="preserve"><metadata id="metadata3423"/><style id="style3383" type="text/css">.st1{font-family:&apos;OpenSans-Bold&apos;}.st3,.st5{clip-path:url(#SVGID_2_);fill:#e93e33}.st5{fill:#f47534}.st6{fill:#fff}.st7{font-size:22.2416}.st8{fill:#cc2a27}.st11{clip-path:url(#SVGID_2_);fill:#6e4b34}</style><g id="g3395" transform="translate(-388.949,-263.40701)"><defs id="defs3397"><rect id="SVGID_1_" width="210.06" height="214.03" x="388.95" y="263.41"/></defs><clipPath id="SVGID_2_"><use id="use3401" width="940" height="740" x="0" y="0" xlink:href="#SVGID_1_"/></clipPath><path id="path3403" fill="#6e4b34" d="m487.09,269.5s22.063,2.251,33.889,15.686c11.822,13.436,6.919,30.581,3.971,41.994,0,0-7.572,20.639-7.692,21.875-0.122,1.232-0.901-16.759-3.216-21.976-2.308-5.204,1.716-19.784-6.918-25.596-8.645-5.809-21.18-3.564-21.18-3.564s-17.872-5.439-26.573,4.179c-8.714,9.622-3.976,17.239-5.32,24.743-1.336,7.512-2.241,17.092-2.241,17.092s-3.136-21.183-3.604-29.335c-0.481-8.148-7.657-37.67,38.884-45.098" class="st11" clip-path="url(#SVGID_2_)"/><path id="path3405" fill="#e93e33" d="m459.99,385.44s22.48,38.42,28.942,40.035c3.725,0.933,27.75-45.011,27.75-45.011s3.835,0.237,5.578,3.141c0,0,42.449,9.567,49.422,20.315,6.973,10.752,16.865,55.434,22.098,90.737,5.229,35.304,2.628,43.669,2.628,43.669h-207.46s8.72-95.548,9.3-103.1c0.582-7.554,2.905-25.4,24.988-32.954s31.669-10.003,36.757-16.83" class="st3" clip-path="url(#SVGID_2_)"/><path id="path3407" fill="#6e4b34" d="m464.2,298.42s10.17-4.794,21.792,0.437c11.627,5.229,16.999,29.053,30.074,30.361,0,0,12.349-30.655-16.997-39.227-29.348-8.567-28.368-4.971-34.869,8.429" class="st11" clip-path="url(#SVGID_2_)"/><path id="path3409" fill="#6e4b34" d="m487.09,269.5s-7.488-1.445-12.135-1.881c-4.649-0.435-6.392-4.213-6.392-4.213s-6.684,9.878,0.723,15.691c7.412,5.81,23.536-0.582,23.536-0.582l-5.732-9.015z" class="st11" clip-path="url(#SVGID_2_)"/><path id="path3411" fill="#f47534" d="m512.55,329.95c-2.074-0.11-6-0.843-11.549-0.729-5.552,0.113-7.657,0.561-12.147,1.963-4.482,1.398-5.754,1.179-5.754,1.179v3.305s2.838-0.615,4.02,3.757c1.174,4.373,5.201,11.214,15.459,10.484,10.261-0.73,10.4-8.914,11.016-12.501,0.618-3.59,2.028-3.422,2.028-3.422l0.485-3.644c-0.001,0-1.484-0.28-3.558-0.392m-0.841,8.634c-0.336,6.617-4.597,10.877-11.886,9.98s-8.915-5.496-9.703-8.749c-0.782-3.251-0.612-5.154,1.517-6.893,2.13-1.738,7.176-1.85,7.176-1.85,10.001-0.448,13.236,0.895,12.896,7.512" class="st5" clip-path="url(#SVGID_2_)"/><path id="path3413" fill="#f47534" d="m452.55,330.34,0.447,3.645s1.35-0.17,1.966,3.421c0.615,3.587,0.615,11.771,10.875,12.501,10.258,0.73,14.141-6.111,15.319-10.483,1.177-4.373,3.604-3.758,3.604-3.758v-3.306s-0.853,0.22-5.344-1.18c-4.481-1.4-6.113-1.848-11.666-1.961-5.549-0.114-9.505,0.62-11.583,0.73-2.073,0.111-3.618,0.391-3.618,0.391m17.324,0.73s5.046,0.11,7.179,1.848c2.128,1.74,2.298,3.644,1.515,6.896-0.789,3.252-2.412,7.852-9.702,8.748-7.289,0.897-11.548-3.363-11.888-9.98-0.335-6.617,2.898-7.962,12.896-7.512" class="st5" clip-path="url(#SVGID_2_)"/></g><rect id="rect3415" width="197" height="33.634" x="5.421" y="218.62" fill="#cc2a27" class="st8"/><text id="text3417" x="37.925" y="243.569" fill="#fff" class="st6 st1 st7" font-family="OpenSans-Bold" font-size="22.242">$362, 053.00</text></svg>